HIERARCHY
ROOT Hips
{
	OFFSET 0.000000 0.000000 0.000000
	CHANNELS 6 Xposition Yposition Zposition Zrotation Yrotation Xrotation 
	JOINT LowerBack
	{
		OFFSET 0.000000 0.000000 0.000000
		CHANNELS 3 Zrotation Yrotation Xrotation
		JOINT Spine
		{
			OFFSET 0.028270 2.035590 -0.193380
			CHANNELS 3 Zrotation Yrotation Xrotation
			JOINT Spine1
			{
				OFFSET 0.056720 2.048850 -0.042750
				CHANNELS 3 Zrotation Yrotation Xrotation
				JOINT Neck
				{
					OFFSET 0.000000 0.000000 0.000000
					CHANNELS 3 Zrotation Yrotation Xrotation
					JOINT Neck1
					{
						OFFSET -0.054170 1.746240 0.172020
						CHANNELS 3 Zrotation Yrotation Xrotation
						JOINT Head
						{
							OFFSET 0.104070 1.761360 -0.123970
							CHANNELS 3 Zrotation Yrotation Xrotation
							End Site
							{
								OFFSET 0.000000 0.000000 0.000000
							}
						}
					}
				}
				JOINT LeftShoulder
				{
					OFFSET 0.000000 0.000000 0.000000
					CHANNELS 3 Zrotation Yrotation Xrotation
					JOINT LeftArm
					{
						OFFSET 3.362410 1.200890 -0.311210
						CHANNELS 3 Zrotation Yrotation Xrotation
						JOINT LeftForeArm
						{
							OFFSET 4.983000 -0.000000 -0.000000
							CHANNELS 3 Zrotation Yrotation Xrotation
							JOINT LeftHand
							{
								OFFSET 3.483560 -0.000000 -0.000000
								CHANNELS 3 Zrotation Yrotation Xrotation
								JOINT LeftFingerBase
								{
									OFFSET 0.000000 0.000000 0.000000
									CHANNELS 3 Zrotation Yrotation Xrotation
									JOINT LeftHandIndex1
									{
										OFFSET 0.715260 -0.000000 -0.000000
										CHANNELS 3 Zrotation Yrotation Xrotation
										End Site
										{
											OFFSET 0.000000 0.000000 0.000000
										}
									}
								}
								JOINT LThumb
								{
									OFFSET 0.000000 0.000000 0.000000
									CHANNELS 3 Zrotation Yrotation Xrotation
									End Site
									{
										OFFSET 0.000000 0.000000 0.000000
									}
								}
							}
						}
					}
				}
				JOINT RightShoulder
				{
					OFFSET 0.000000 0.000000 0.000000
					CHANNELS 3 Zrotation Yrotation Xrotation
					JOINT RightArm
					{
						OFFSET -3.136600 1.374050 -0.404650
						CHANNELS 3 Zrotation Yrotation Xrotation
						JOINT RightForeArm
						{
							OFFSET -5.241900 -0.000000 -0.000000
							CHANNELS 3 Zrotation Yrotation Xrotation
							JOINT RightHand
							{
								OFFSET -3.444170 -0.000000 -0.000000
								CHANNELS 3 Zrotation Yrotation Xrotation
								JOINT RightFingerBase
								{
									OFFSET 0.000000 0.000000 0.000000
									CHANNELS 3 Zrotation Yrotation Xrotation
									JOINT RightHandIndex1
									{
										OFFSET -0.622530 -0.000000 -0.000000
										CHANNELS 3 Zrotation Yrotation Xrotation
										End Site
										{
											OFFSET 0.000000 0.000000 0.000000
										}
									}
								}
								JOINT RThumb
								{
									OFFSET 0.000000 0.000000 0.000000
									CHANNELS 3 Zrotation Yrotation Xrotation
									End Site
									{
										OFFSET 0.000000 0.000000 0.000000
									}
								}
							}
						}
					}
				}
			}
		}
	}
}
}
MOTION
Frames: 9
Frame Time: 0.008333
5.281387 17.426606 0.567511 2.462646 -74.837302 6.951323 -3.598860 0.900904 -3.645662 -0.788903 1.246751 -4.640463 -1.271282 1.315936 -5.387949 -0.159043 7.894919 1.955754 0.102742 -0.173422 2.687885 0.000000 0.000000 0.000000 11.458443 3.143824 -8.044824 -62.747135 -74.877337 -19.976344 173.345275 -65.157090 179.501173 27.470549 -14.472821 -3.894721 -0.188300 1.212755 -0.000000 0.000000 0.000000 0.000000 0.000000 0.000000 0.000000 -10.576501 9.743185 1.753910 72.114196 58.233755 -18.477794 -0.112688 1.438863 0.003551 1.410758 -3.124698 -0.036910 -0.003731 -0.145096 0.000000 0.000000 0.000000 0.000000 0.000000 0.000000 0.000000 
5.284643 17.423272 0.577095 2.381958 -75.019538 6.897628 -3.402290 0.888135 -3.601571 -0.810042 1.209506 -4.633467 -1.527371 1.282206 -5.377730 0.339676 7.673241 2.027479 -0.069937 -0.184353 2.704089 0.000000 0.000000 0.000000 11.772821 3.161328 -8.044563 -61.503742 -74.539824 -21.073958 173.310368 -64.839804 179.496827 27.939770 -14.464356 -3.963571 -0.206194 1.213782 -0.000000 0.000000 0.000000 0.000000 0.000000 0.000000 0.000000 -9.427305 9.534076 1.682997 72.908064 57.462760 -17.927989 -0.060646 2.751324 0.007095 2.372838 -3.428255 -0.068773 -0.022863 -0.142127 0.000000 0.000000 0.000000 0.000000 0.000000 0.000000 0.000000 
5.287641 17.420724 0.587785 2.322641 -75.232255 6.844885 -3.207121 0.874441 -3.578609 -0.825849 1.172434 -4.627649 -1.760265 1.248399 -5.359549 0.778702 7.354529 2.092571 -0.218816 -0.193886 2.719243 0.000000 0.000000 0.000000 12.087192 3.164465 -8.053746 -60.352426 -74.182727 -22.096872 173.271901 -64.517139 179.492403 28.411963 -14.465502 -4.035424 -0.223753 1.214836 -0.000000 0.000000 0.000000 0.000000 0.000000 0.000000 0.000000 -8.468465 9.231998 1.596999 73.614880 56.667104 -15.975898 0.018895 4.547366 0.010778 3.458864 -4.285429 -0.126930 -0.039228 -0.131443 0.000000 0.000000 0.000000 0.000000 0.000000 0.000000 0.000000 
5.290085 17.419003 0.599489 2.292051 -75.465606 6.786357 -3.027843 0.857862 -3.582847 -0.837390 1.134936 -4.625170 -1.963880 1.213726 -5.337284 1.166578 6.990452 2.164564 -0.338219 -0.201964 2.737171 0.000000 0.000000 0.000000 12.403410 3.142583 -8.066762 -59.353810 -73.818170 -22.984339 173.233614 -64.200771 179.488177 28.846861 -14.488960 -4.107780 -0.239733 1.216416 -0.000000 0.000000 0.000000 0.000000 0.000000 0.000000 0.000000 -7.714040 8.895964 1.490718 74.107103 55.748513 -12.766801 0.119599 6.948507 0.014321 4.586431 -5.564245 -0.220786 -0.052257 -0.115944 0.000000 0.000000 0.000000 0.000000 0.000000 0.000000 0.000000 
5.291799 17.418139 0.612129 2.296723 -75.712213 6.716176 -2.869510 0.834775 -3.616130 -0.842953 1.094024 -4.626688 -2.128334 1.175179 -5.312085 1.499994 6.620392 2.249378 -0.425529 -0.208538 2.759530 0.000000 0.000000 0.000000 12.705353 3.100469 -8.080212 -58.522665 -73.460374 -23.718316 173.198997 -63.902326 179.484443 29.213636 -14.538935 -4.177437 -0.253193 1.218623 -0.000000 0.000000 0.000000 0.000000 0.000000 0.000000 0.000000 -7.166465 8.562137 1.365592 74.265664 54.741405 -8.950443 0.215232 9.861367 0.017576 5.681961 -7.003039 -0.346746 -0.063211 -0.099358 0.000000 0.000000 0.000000 0.000000 0.000000 0.000000 0.000000 
5.292832 17.418032 0.625526 2.340843 -75.965620 6.629538 -2.736221 0.802663 -3.676183 -0.842845 1.047467 -4.631586 -2.252562 1.130463 -5.283446 1.786437 6.253670 2.346859 -0.485396 -0.213836 2.786108 0.000000 0.000000 0.000000 12.985048 3.047787 -8.093344 -57.870971 -73.130742 -24.284379 173.171287 -63.632287 179.481431 29.487190 -14.617019 -4.241093 -0.263471 1.221585 -0.000000 0.000000 0.000000 0.000000 0.000000 0.000000 0.000000 -6.783984 8.231756 1.225435 74.019579 53.733383 -5.006768 0.278072 13.150297 0.020538 6.646711 -8.336825 -0.485013 -0.073089 -0.085310 -0.000000 0.000000 0.000000 0.000000 0.000000 0.000000 0.000000 
5.293223 17.418609 0.639556 2.426249 -76.222958 6.526782 -2.614950 0.758360 -3.756897 -0.833202 0.991105 -4.638639 -2.331489 1.075710 -5.252399 2.005565 5.893464 2.449053 -0.519013 -0.217766 2.814683 0.000000 0.000000 0.000000 13.208530 3.007258 -8.106220 -57.344024 -72.839954 -24.731587 173.152679 -63.398164 179.479369 29.660373 -14.712534 -4.294648 -0.270408 1.224829 -0.000000 0.000000 0.000000 0.000000 0.000000 0.000000 0.000000 -6.571078 7.894753 1.071108 73.487058 52.871868 -1.571735 0.273886 16.565521 0.023696 7.424503 -9.346039 -0.609186 -0.084142 -0.076948 0.000000 0.000000 0.000000 0.000000 0.000000 0.000000 0.000000 
5.293108 17.419656 0.654015 2.552251 -76.480761 6.408546 -2.501599 0.701631 -3.851880 -0.814827 0.924137 -4.647670 -2.372197 1.010274 -5.224189 2.164049 5.539757 2.553369 -0.531579 -0.220559 2.844392 0.000000 0.000000 0.000000 13.371795 2.987064 -8.116947 -56.923910 -72.600134 -25.075551 173.145462 -63.207899 179.478304 29.729131 -14.819216 -4.335501 -0.274004 1.228286 -0.000000 0.000000 0.000000 0.000000 0.000000 0.000000 0.000000 -6.495888 7.547240 0.898396 72.738728 52.193937 1.241817 0.188610 20.047684 0.027343 7.931094 -9.932880 -0.692863 -0.096698 -0.076516 0.000000 0.000000 0.000000 0.000000 0.000000 0.000000 0.000000 
5.292617 17.420923 0.668752 2.715169 -76.736364 6.278074 -2.394033 0.633281 -3.955043 -0.789778 0.846850 -4.658683 -2.385438 0.934563 -5.204189 2.275417 5.183945 2.657440 -0.530053 -0.222546 2.874427 0.000000 0.000000 0.000000 13.481774 2.991977 -8.123695 -56.599014 -72.419343 -25.328571 173.150862 -63.066658 179.478184 29.698026 -14.929904 -4.362153 -0.274526 1.231919 -0.000000 0.000000 0.000000 0.000000 0.000000 0.000000 0.000000 -6.514606 7.178231 0.701483 71.828888 51.718432 3.439306 0.018923 23.558701 0.031417 8.076897 -10.040506 -0.713744 -0.110279 -0.085938 0.000000 0.000000 0.000000 0.000000 0.000000 0.000000 0.000000 
